<?xml version="1.0" standalone="no"?>
<!DOCTYPE svg PUBLIC "-//W3C//DTD SVG 20010904//EN"
 "http://www.w3.org/TR/2001/REC-SVG-20010904/DTD/svg10.dtd">
<svg version="1.0" xmlns="http://www.w3.org/2000/svg"
 width="50.000000pt" height="50.000000pt" viewBox="0 0 50.000000 50.000000"
 preserveAspectRatio="xMidYMid meet">

<g transform="translate(0.000000,50.000000) scale(0.100000,-0.100000)"
fill="#000000" stroke="none">
<path d="M175 455 c-16 -9 -41 -27 -56 -41 -29 -28 -44 -30 -53 -9 -7 20 -32
19 -40 -1 -11 -30 -6 -51 19 -74 23 -22 25 -31 25 -109 0 -98 16 -137 72 -172
28 -17 46 -20 115 -17 132 5 173 51 173 194 0 73 2 83 25 104 14 13 25 31 25
41 0 46 -30 66 -49 32 -11 -20 -12 -19 -76 31 -46 37 -132 47 -180 21z m-109
-79 c18 -18 18 -36 0 -36 -13 0 -26 20 -26 41 0 13 9 11 26 -5z m394 5 c0 -21
-13 -41 -26 -41 -17 0 -18 22 -2 38 14 14 28 16 28 3z m-257 -118 c12 -7 -13
-33 -32 -33 -21 0 -41 19 -41 38 0 10 8 12 33 7 17 -4 36 -9 40 -12z m165 1
c-5 -25 -35 -41 -54 -29 -22 14 -19 29 8 37 39 10 50 9 46 -8z m-178 -91 c10
-17 10 -17 20 0 7 10 23 17 40 17 17 0 33 -7 40 -17 10 -17 10 -17 20 0 12 18
60 24 60 7 0 -20 -52 -60 -86 -66 -19 -3 -49 -3 -68 0 -34 6 -86 46 -86 66 0
17 48 11 60 -7z"/>
</g>
</svg>
