<?xml version="1.0" standalone="no"?>
<!DOCTYPE svg PUBLIC "-//W3C//DTD SVG 20010904//EN"
 "http://www.w3.org/TR/2001/REC-SVG-20010904/DTD/svg10.dtd">
<svg version="1.0" xmlns="http://www.w3.org/2000/svg"
 width="512.000000pt" height="512.000000pt" viewBox="0 0 512.000000 512.000000"
 preserveAspectRatio="xMidYMid meet">

<g transform="translate(0.000000,512.000000) scale(0.100000,-0.100000)"
fill="#000000" stroke="none">
<path d="M3990 4710 c-622 -203 -949 -315 -957 -326 -18 -25 -16 -58 5 -76 10
-9 177 -49 407 -97 215 -45 397 -84 405 -87 16 -6 -2186 -2214 -2208 -2214 -7
0 -110 29 -229 65 -119 36 -221 65 -227 65 -6 0 -253 -242 -548 -537 -365
-364 -538 -544 -538 -558 0 -42 25 -55 215 -111 105 -31 192 -58 194 -61 3 -2
-18 -27 -46 -56 -62 -63 -83 -103 -83 -157 0 -125 131 -213 245 -165 20 8 60
37 90 66 30 29 57 50 59 48 2 -2 29 -89 60 -194 32 -107 64 -195 74 -202 44
-35 45 -34 595 515 290 290 530 536 533 548 3 11 -24 119 -60 239 -36 120 -66
223 -66 229 0 6 497 508 1104 1115 878 878 1105 1100 1110 1085 3 -11 42 -192
86 -404 66 -315 85 -388 102 -402 26 -23 54 -23 75 1 14 17 592 1768 624 1893
11 42 11 50 -6 68 -10 11 -30 20 -44 19 -14 0 -451 -139 -971 -309z m868 133
c-31 -113 -494 -1511 -499 -1505 -4 4 -43 183 -88 397 -45 215 -84 398 -87
408 -3 10 -15 24 -27 31 -12 8 -197 51 -412 96 -214 44 -398 84 -407 88 -12 4
252 95 740 254 416 136 763 247 771 247 8 1 11 -6 9 -16z m-805 -762 c16 -6
26 -20 31 -43 6 -32 -3 -42 -1741 -1781 -962 -961 -1758 -1750 -1771 -1753
-33 -9 -72 20 -72 54 0 22 56 83 310 337 171 172 310 319 310 328 0 22 -44 67
-65 67 -9 0 -37 -20 -64 -45 l-48 -45 -154 46 c-85 25 -160 49 -166 53 -8 4
36 55 125 143 l137 137 115 -35 c63 -19 139 -42 169 -50 l53 -16 -52 -53 c-36
-37 -53 -61 -53 -79 0 -36 20 -56 57 -56 28 0 168 137 1431 1400 770 770 1405
1400 1412 1400 6 0 23 -4 36 -9z m-2654 -2228 c79 -23 146 -44 147 -46 2 -2
-49 -55 -114 -118 l-117 -116 -167 52 -167 51 117 117 c94 94 121 116 137 110
11 -3 85 -26 164 -50z m466 -487 l47 -159 -113 -113 c-63 -63 -116 -114 -119
-114 -5 0 -101 318 -100 335 0 19 224 235 231 222 3 -6 28 -84 54 -171z m-330
-330 l47 -159 -136 -136 c-74 -74 -138 -132 -141 -129 -4 3 -28 80 -55 170
l-50 163 137 137 c88 88 140 133 144 125 3 -6 28 -84 54 -171z m-854 117 c87
-25 159 -49 159 -52 0 -4 -51 -57 -114 -120 l-113 -113 -119 37 c-66 20 -141
43 -168 52 l-48 15 113 114 c63 63 117 114 122 114 5 0 80 -21 168 -47z m414
-763 c-63 -63 -117 -111 -120 -108 -4 3 -28 80 -55 170 l-50 163 117 117 117
118 52 -173 52 -172 -113 -115z"/>
<path d="M4591 4746 c-92 -32 -116 -83 -57 -121 21 -14 30 -13 89 5 74 23 97
41 97 74 0 58 -43 72 -129 42z"/>
<path d="M4090 4584 c-165 -55 -290 -101 -297 -111 -28 -37 -2 -93 44 -93 32
0 576 180 596 198 9 8 17 26 17 39 0 28 -33 63 -57 62 -10 -1 -146 -43 -303
-95z"/>
</g>
</svg>
